<svg xmlns="http://www.w3.org/2000/svg" version="1.1" xmlns:xlink="http://www.w3.org/1999/xlink" xmlns:svgjs="http://svgjs.dev/svgjs" width="1500" height="660" viewBox="0 0 1500 660"><g transform="matrix(1,0,0,1,-1.1642798224615944,-0.9338297872338899)"><svg viewBox="0 0 320 141" data-background-color="#001325" preserveAspectRatio="xMidYMid meet" height="660" width="1500" xmlns="http://www.w3.org/2000/svg" xmlns:xlink="http://www.w3.org/1999/xlink"><g id="tight-bounds" transform="matrix(1,0,0,1,0.24837969545848182,0.19949999999997203)"><svg viewBox="0 0 319.50324060908304 140.60052000000002" height="140.60052000000002" width="319.50324060908304"><g><svg viewBox="0 0 319.50324060908304 140.60052000000002" height="140.60052000000002" width="319.50324060908304"><g transform="matrix(1,0,0,1,144.7798058398523,0)"><svg viewBox="0 0 174.72343476923078 140.60052000000002" height="140.60052000000002" width="174.72343476923078"><g><path d="M0 140.601v-140.601h174.723v140.601z" fill="#001325" stroke="transparent" stroke-width="0" rx="0%" data-fill-palette-color="tertiary"></path><path d="M3.283 137.317v-134.034h168.157v134.034z" fill="#ddbf00" stroke="transparent" stroke-width="0" rx="0%" data-fill-palette-color="quaternary"></path><path d="M9.85 130.751v-120.901h155.024v120.901z" fill="#001325" stroke="transparent" stroke-width="0" data-fill-palette-color="tertiary"></path></g><g transform="matrix(1,0,0,1,19.69974,19.69974)" id="textblocktransform"><svg viewBox="0 0 135.3239547692308 101.20104000000002" height="101.20104000000002" width="135.3239547692308" id="textblock"><g><svg viewBox="0 0 135.3239547692308 101.20104000000002" height="101.20104000000002" width="135.3239547692308"><g transform="matrix(1,0,0,1,0,0)"><svg width="135.3239547692308" viewBox="0.5999999999999996 -35.5 157.89999999999998 114" height="101.20104000000002" data-palette-color="#ddbf00"><svg></svg><svg></svg><svg></svg><g class="wordmark-text-0" data-fill-palette-color="quaternary" id="text-0"><path d="M9.8 0.5c-2.633 0-4.64-0.75-6.02-2.25-1.387-1.5-2.08-3.617-2.08-6.35v0-18.8c0-2.733 0.693-4.85 2.08-6.35 1.38-1.5 3.387-2.25 6.02-2.25v0c2.633 0 4.643 0.75 6.03 2.25 1.38 1.5 2.07 3.617 2.07 6.35v0 3.7h-5.2v-4.05c0-2.167-0.917-3.25-2.75-3.25v0c-1.833 0-2.75 1.083-2.75 3.25v0 19.55c0 2.133 0.917 3.2 2.75 3.2v0c1.833 0 2.75-1.067 2.75-3.2v0-5.35h5.2v4.95c0 2.733-0.69 4.85-2.07 6.35-1.387 1.5-3.397 2.25-6.03 2.25zM29.25 0.5c-2.7 0-4.767-0.767-6.2-2.3-1.433-1.533-2.15-3.7-2.15-6.5v0-18.4c0-2.8 0.717-4.967 2.15-6.5 1.433-1.533 3.5-2.3 6.2-2.3v0c2.7 0 4.767 0.767 6.2 2.3 1.433 1.533 2.15 3.7 2.15 6.5v0 18.4c0 2.8-0.717 4.967-2.15 6.5-1.433 1.533-3.5 2.3-6.2 2.3zM29.25-4.5c1.9 0 2.85-1.15 2.85-3.45v0-19.1c0-2.3-0.95-3.45-2.85-3.45v0c-1.9 0-2.85 1.15-2.85 3.45v0 19.1c0 2.3 0.95 3.45 2.85 3.45zM49.05 0.5c-2.633 0-4.643-0.75-6.03-2.25-1.38-1.5-2.07-3.617-2.07-6.35v0-18.8c0-2.733 0.69-4.85 2.07-6.35 1.387-1.5 3.397-2.25 6.03-2.25v0c2.633 0 4.643 0.75 6.03 2.25 1.38 1.5 2.07 3.617 2.07 6.35v0 3.7h-5.2v-4.05c0-2.167-0.917-3.25-2.75-3.25v0c-1.833 0-2.75 1.083-2.75 3.25v0 19.55c0 2.133 0.917 3.2 2.75 3.2v0c1.833 0 2.75-1.067 2.75-3.2v0-5.35h5.2v4.95c0 2.733-0.69 4.85-2.07 6.35-1.387 1.5-3.397 2.25-6.03 2.25zM68.5 0.5c-2.7 0-4.767-0.767-6.2-2.3-1.433-1.533-2.15-3.7-2.15-6.5v0-18.4c0-2.8 0.717-4.967 2.15-6.5 1.433-1.533 3.5-2.3 6.2-2.3v0c2.7 0 4.767 0.767 6.2 2.3 1.433 1.533 2.15 3.7 2.15 6.5v0 18.4c0 2.8-0.717 4.967-2.15 6.5-1.433 1.533-3.5 2.3-6.2 2.3zM68.5-4.5c1.9 0 2.85-1.15 2.85-3.45v0-19.1c0-2.3-0.95-3.45-2.85-3.45v0c-1.9 0-2.85 1.15-2.85 3.45v0 19.1c0 2.3 0.95 3.45 2.85 3.45z" fill="#ddbf00" fill-rule="nonzero" stroke="none" stroke-width="1" stroke-linecap="butt" stroke-linejoin="miter" stroke-miterlimit="10" stroke-dasharray="" stroke-dashoffset="0" font-family="none" font-weight="none" font-size="none" text-anchor="none" style="mix-blend-mode: normal" data-fill-palette-color="quaternary" opacity="1"></path><path transform="translate(0,39)" d="M6.35 0v-30h-5.75v-5h17v5h-5.75v30zM20.25 0v-35h8.15c2.833 0 4.9 0.66 6.2 1.98 1.3 1.313 1.95 3.337 1.95 6.07v0 2.15c0 3.633-1.2 5.933-3.6 6.9v0 0.1c1.333 0.4 2.273 1.217 2.82 2.45 0.553 1.233 0.83 2.883 0.83 4.95v0 6.15c0 1 0.033 1.807 0.1 2.42 0.067 0.62 0.233 1.23 0.5 1.83v0h-5.6c-0.2-0.567-0.333-1.1-0.4-1.6-0.067-0.5-0.1-1.4-0.1-2.7v0-6.4c0-1.6-0.26-2.717-0.78-3.35-0.513-0.633-1.403-0.95-2.67-0.95v0h-1.9v15zM25.75-20h2c1.1 0 1.927-0.283 2.48-0.85 0.547-0.567 0.82-1.517 0.82-2.85v0-2.7c0-1.267-0.223-2.183-0.67-2.75-0.453-0.567-1.163-0.85-2.13-0.85v0h-2.5zM38.95 0l5.7-35h7.45l5.7 35h-5.5l-1-6.95v0.1h-6.25l-1 6.85zM45.7-11.6h4.95l-2.45-17.3h-0.1zM60.45 0v-35h8.4c2.733 0 4.783 0.733 6.15 2.2 1.367 1.467 2.05 3.617 2.05 6.45v0 17.7c0 2.833-0.683 4.983-2.05 6.45-1.367 1.467-3.417 2.2-6.15 2.2v0zM65.95-5h2.8c0.9 0 1.593-0.267 2.08-0.8 0.48-0.533 0.72-1.4 0.72-2.6v0-18.2c0-1.2-0.24-2.067-0.72-2.6-0.487-0.533-1.18-0.8-2.08-0.8v0h-2.8zM80.75 0v-35h15v5h-9.5v9.25h7.55v5h-7.55v10.75h9.5v5z" fill="#ddbf00" fill-rule="nonzero" stroke="none" stroke-width="1" stroke-linecap="butt" stroke-linejoin="miter" stroke-miterlimit="10" stroke-dasharray="" stroke-dashoffset="0" font-family="none" font-weight="none" font-size="none" text-anchor="none" style="mix-blend-mode: normal" data-fill-palette-color="quaternary" opacity="1"></path><path transform="translate(0,78)" d="M2.05 0v-35h5.5v35zM11.65 0v-35h6.9l5.35 20.95h0.1v-20.95h4.9v35h-5.65l-6.6-25.55h-0.1v25.55zM33 0v-35h8.4c2.733 0 4.783 0.733 6.15 2.2 1.367 1.467 2.05 3.617 2.05 6.45v0 17.7c0 2.833-0.683 4.983-2.05 6.45-1.367 1.467-3.417 2.2-6.15 2.2v0zM38.5-5h2.8c0.9 0 1.593-0.267 2.08-0.8 0.48-0.533 0.72-1.4 0.72-2.6v0-18.2c0-1.2-0.24-2.067-0.72-2.6-0.487-0.533-1.18-0.8-2.08-0.8v0h-2.8zM61.25 0.5c-2.7 0-4.767-0.767-6.2-2.3-1.433-1.533-2.15-3.7-2.15-6.5v0-18.4c0-2.8 0.717-4.967 2.15-6.5 1.433-1.533 3.5-2.3 6.2-2.3v0c2.7 0 4.767 0.767 6.2 2.3 1.433 1.533 2.15 3.7 2.15 6.5v0 18.4c0 2.8-0.717 4.967-2.15 6.5-1.433 1.533-3.5 2.3-6.2 2.3zM61.25-4.5c1.9 0 2.85-1.15 2.85-3.45v0-19.1c0-2.3-0.95-3.45-2.85-3.45v0c-1.9 0-2.85 1.15-2.85 3.45v0 19.1c0 2.3 0.95 3.45 2.85 3.45zM73.3 0v-35h6.9l5.35 20.95h0.1v-20.95h4.9v35h-5.65l-6.6-25.55h-0.1v25.55zM94.65 0v-35h15v5h-9.5v9.25h7.55v5h-7.55v10.75h9.5v5zM120.05 0.5c-2.667 0-4.683-0.76-6.05-2.28-1.367-1.513-2.05-3.687-2.05-6.52v0-2h5.2v2.4c0 2.267 0.95 3.4 2.85 3.4v0c0.933 0 1.643-0.277 2.13-0.83 0.48-0.547 0.72-1.437 0.72-2.67v0c0-1.467-0.333-2.76-1-3.88-0.667-1.113-1.9-2.453-3.7-4.02v0c-2.267-2-3.85-3.81-4.75-5.43-0.9-1.613-1.35-3.437-1.35-5.47v0c0-2.767 0.7-4.91 2.1-6.43 1.4-1.513 3.433-2.27 6.1-2.27v0c2.633 0 4.623 0.757 5.97 2.27 1.353 1.52 2.03 3.697 2.03 6.53v0 1.45h-5.2v-1.8c0-1.2-0.233-2.077-0.7-2.63-0.467-0.547-1.15-0.82-2.05-0.82v0c-1.833 0-2.75 1.117-2.75 3.35v0c0 1.267 0.34 2.45 1.02 3.55 0.687 1.1 1.93 2.433 3.73 4v0c2.3 2 3.883 3.817 4.75 5.45 0.867 1.633 1.3 3.55 1.3 5.75v0c0 2.867-0.71 5.067-2.13 6.6-1.413 1.533-3.47 2.3-6.17 2.3zM131.5 0v-35h5.5v35zM139.65 0l5.7-35h7.45l5.7 35h-5.5l-1-6.95v0.1h-6.25l-1 6.85zM146.4-11.6h4.95l-2.45-17.3h-0.1z" fill="#ddbf00" fill-rule="nonzero" stroke="none" stroke-width="1" stroke-linecap="butt" stroke-linejoin="miter" stroke-miterlimit="10" stroke-dasharray="" stroke-dashoffset="0" font-family="none" font-weight="none" font-size="none" text-anchor="none" style="mix-blend-mode: normal" data-fill-palette-color="quaternary" opacity="1"></path></g></svg></g></svg></g></svg></g></svg></g><g transform="matrix(1,0,0,1,0,0.7189640705626346)"><svg viewBox="0 0 138.2132258398523 139.16259185887475" height="139.16259185887475" width="138.2132258398523"><g><svg xmlns="http://www.w3.org/2000/svg" xmlns:xlink="http://www.w3.org/1999/xlink" version="1.1" x="0" y="0" viewBox="9.45 5.1295 38.215999999999994 38.4785" enable-background="new 0 0 58 52" xml:space="preserve" height="139.16259185887475" width="138.2132258398523" class="icon-icon-0" data-fill-palette-color="accent" id="icon-0"><path d="M19.417 17.596l7.597 3.497c0.999 0.46 2.634 0.46 3.632 0l6.411-2.951 10.514-5.014c-0.221-0.166-0.447-0.315-0.686-0.424L31.559 5.647c-1.498-0.69-3.951-0.69-5.45 0l-15.331 7.057c-0.245 0.112-0.477 0.267-0.703 0.438L19.417 17.596 19.417 17.596z" fill="#ddbf00" data-fill-palette-color="accent"></path><path d="M28.098 24.693c0-1.102-0.817-2.376-1.816-2.837L14.71 16.532c-0.01-0.004-0.018-0.012-0.028-0.017L9.45 14.104v17.992c0 1.65 1.227 3.564 2.726 4.255l15.331 7.058c0.136 0.063 0.288 0.113 0.438 0.164l0.152-9.367V24.693z" fill="#ddbf00" data-fill-palette-color="accent"></path><path d="M42.465 16.466c-0.021 0.011-0.039 0.026-0.062 0.037l-11.574 5.327c-1 0.459-1.816 1.736-1.816 2.836v7.836l0.023-0.001L29 43.608c0.216-0.065 0.421-0.142 0.61-0.229l15.33-7.058c1.498-0.69 2.726-2.604 2.726-4.255l-0.003-17.999L42.465 16.466z" fill="#ddbf00" data-fill-palette-color="accent"></path></svg></g></svg></g></svg></g><defs></defs></svg><rect width="319.50324060908304" height="140.60052000000002" fill="none" stroke="none" visibility="hidden"></rect></g></svg></g></svg>